<?xml version="1.0" standalone="no"?>
<!DOCTYPE svg PUBLIC "-//W3C//DTD SVG 20010904//EN"
 "http://www.w3.org/TR/2001/REC-SVG-20010904/DTD/svg10.dtd">
<svg version="1.0" xmlns="http://www.w3.org/2000/svg"
 width="260.000000pt" height="260.000000pt" viewBox="0 0 260.000000 260.000000"
 preserveAspectRatio="xMidYMid meet">
<metadata>
Created by potrace 1.11, written by Peter Selinger 2001-2013
</metadata>
<g transform="translate(0.000000,260.000000) scale(0.100000,-0.100000)"
fill="#000000" stroke="none">
<path d="M1265 2163 c-15 -43 -29 -84 -31 -91 -3 -10 -9 -10 -23 -2 -11 5 -31
10 -44 10 -14 0 -31 7 -38 16 -23 28 -113 74 -144 74 -41 0 -74 -25 -94 -71
-10 -21 -30 -48 -46 -60 -44 -35 -65 -93 -65 -180 l0 -77 -55 -4 c-38 -3 -62
-11 -78 -26 -13 -12 -36 -22 -53 -22 -88 0 -168 -53 -168 -111 0 -63 55 -143
152 -222 l34 -27 -27 -33 c-14 -17 -40 -49 -58 -70 -42 -50 -77 -124 -77 -163
0 -17 -7 -52 -16 -78 -15 -44 -15 -51 -1 -82 15 -32 45 -53 95 -68 18 -6 22
-3 22 12 0 11 18 44 40 73 37 49 38 54 24 71 -24 25 -11 59 37 103 30 27 38
40 30 48 -26 26 -6 60 54 91 21 11 29 23 30 43 0 23 8 32 42 48 26 12 43 27
45 40 2 15 14 22 45 29 27 6 43 16 46 28 4 13 15 18 40 18 19 0 40 6 46 14 11
13 61 11 61 -3 -1 -3 -10 -17 -21 -31 -21 -24 -21 -24 -35 -5 -13 17 -16 18
-24 5 -6 -8 -13 -25 -16 -37 -7 -27 -17 -29 -34 -8 -19 23 -27 18 -35 -22 -10
-52 -14 -56 -40 -39 -30 20 -35 13 -35 -47 0 -54 5 -51 -64 -30 -14 5 -17 2
-13 -13 3 -10 8 -40 12 -66 l6 -48 -30 0 c-37 0 -37 -4 -11 -70 11 -28 20 -55
20 -60 0 -6 -23 -10 -50 -10 l-51 0 17 -33 c9 -17 30 -51 45 -74 16 -23 29
-44 29 -46 0 -2 -25 -12 -55 -22 -65 -20 -65 -20 20 -106 56 -57 58 -60 39
-74 -10 -8 -38 -22 -61 -32 -24 -10 -43 -20 -43 -23 0 -9 101 -85 151 -114 41
-23 48 -24 59 -11 7 8 16 13 20 10 4 -3 10 11 12 30 4 32 2 35 -22 35 -14 0
-31 5 -38 12 -14 14 -16 136 -2 158 7 12 4 16 -18 20 -23 4 -27 11 -30 41 -2
20 3 55 11 78 14 39 14 42 -5 52 -16 9 -19 17 -14 42 3 18 15 44 27 60 18 25
18 29 4 43 -21 22 -19 30 18 69 l32 35 25 -54 26 -55 -39 -6 -38 -7 17 -26 c9
-15 28 -39 42 -55 l26 -27 -32 -12 c-18 -7 -32 -16 -32 -20 0 -4 25 -27 56
-52 l55 -46 -46 -29 -46 -29 52 -32 c29 -17 63 -36 76 -41 20 -7 22 -12 13
-29 -6 -11 -24 -30 -40 -42 -17 -12 -30 -25 -30 -29 0 -4 35 -19 78 -34 42
-15 85 -30 95 -34 16 -6 14 -12 -22 -63 -32 -46 -36 -58 -24 -62 28 -11 199
-30 214 -24 9 3 28 45 45 92 22 67 32 85 44 80 8 -4 29 -9 45 -12 17 -3 44
-16 60 -30 37 -31 102 -61 132 -62 29 0 77 42 94 82 7 18 28 45 46 61 39 35
63 105 63 189 0 53 2 58 23 58 33 0 95 19 109 34 8 7 36 16 63 20 203 31 206
166 7 329 -39 31 -37 36 34 118 60 71 84 118 87 176 2 27 9 58 15 70 15 27 15
78 2 104 -10 18 -78 59 -99 59 -5 0 -13 -10 -16 -22 -4 -13 -25 -47 -46 -75
-22 -29 -35 -53 -30 -53 6 0 15 -9 21 -20 14 -26 -8 -65 -55 -100 -21 -16 -30
-29 -24 -35 19 -19 9 -54 -24 -79 -19 -15 -39 -26 -46 -26 -7 0 -9 -9 -5 -24
4 -18 -1 -28 -22 -45 -15 -11 -37 -21 -49 -21 -21 0 -22 3 -17 53 2 28 6 54 8
56 2 2 17 -2 35 -8 l32 -11 -6 65 -6 65 29 0 c36 0 37 8 5 80 l-24 55 50 9
c27 5 49 12 49 15 0 4 -20 37 -44 74 l-44 67 60 18 61 19 -72 76 -73 76 66 33
66 33 -52 41 c-88 68 -146 98 -163 84 -8 -6 -19 -9 -25 -5 -6 4 -10 -9 -10
-35 0 -36 2 -41 19 -35 13 4 27 -1 42 -16 18 -18 21 -29 17 -83 -3 -33 -7 -66
-9 -72 -2 -7 1 -13 6 -14 39 -8 48 -22 42 -71 -3 -26 -13 -59 -22 -73 -15 -23
-15 -25 4 -31 32 -10 31 -47 -2 -103 -15 -25 -18 -37 -9 -40 17 -5 15 -38 -4
-67 -27 -41 -42 -38 -64 13 -12 26 -21 49 -21 52 0 3 16 7 36 10 l35 5 -40 53
c-22 29 -40 55 -40 57 0 3 11 10 25 15 31 12 25 26 -30 70 -25 19 -45 38 -45
42 0 4 18 18 40 31 47 28 46 30 -50 81 l-61 33 45 44 44 43 -55 23 c-30 12
-70 25 -89 29 -19 3 -37 11 -40 16 -4 5 10 33 30 61 19 29 32 55 28 59 -10 10
-128 28 -183 28 l-47 0 -27 -77z m-50 -668 c64 -22 135 -80 135 -110 0 -7 3
-22 6 -32 3 -10 -6 1 -20 25 -32 53 -53 75 -66 67 -5 -3 -10 1 -10 10 0 12 -5
15 -17 11 -9 -4 -20 -1 -24 6 -7 11 -12 11 -29 0 -17 -10 -21 -10 -26 3 -6 14
-9 14 -29 1 -25 -16 -35 -12 -35 15 0 16 7 18 48 15 26 -2 56 -7 67 -11z m32
-72 c3 -7 -9 -10 -36 -7 -22 2 -43 -1 -46 -6 -8 -13 -25 -3 -25 15 0 11 12 14
52 12 28 -1 53 -8 55 -14z m484 -2 l24 -19 -24 -26 c-34 -36 -45 -33 -57 19
-10 43 -9 45 12 45 12 0 32 -9 45 -19z m-601 3 c0 -3 -5 -14 -11 -25 -8 -16
-13 -18 -25 -9 -11 10 -16 7 -24 -16 -10 -25 -12 -26 -27 -12 -21 22 -10 48
22 48 14 0 25 5 25 10 0 6 9 10 20 10 11 0 20 -3 20 -6z m175 -29 c14 -14 25
-28 25 -30 0 -7 -69 40 -70 48 0 15 20 6 45 -18z m-287 -52 c-4 -32 -20 -39
-42 -17 -20 19 -5 44 26 44 15 0 19 -6 16 -27z m319 -15 c-3 -8 -6 -5 -6 6 -1
11 2 17 5 13 3 -3 4 -12 1 -19z m334 12 c25 -14 24 -35 -3 -54 -33 -23 -38
-20 -38 24 0 41 8 47 41 30z m-701 -60 c0 -46 -14 -51 -51 -20 l-24 20 24 20
c37 31 51 26 51 -20z m641 0 c10 -6 19 -17 19 -25 0 -13 -28 -35 -44 -35 -3 0
-6 16 -6 35 0 38 2 40 31 25z m-686 -93 c7 -38 7 -38 -21 -31 -60 14 -69 40
-27 74 31 24 37 18 48 -43z m800 38 c28 -27 31 -38 12 -53 -15 -13 -61 -20
-65 -9 -5 15 11 87 20 87 5 0 20 -11 33 -25z m-155 -20 c0 -11 -39 -29 -47
-21 -2 2 1 16 7 31 9 23 13 25 25 15 8 -7 15 -18 15 -25z m-274 -52 c-7 -7
-46 35 -46 49 0 5 12 -3 26 -17 14 -14 23 -29 20 -32z m9 39 c-3 -3 -11 0 -18
7 -9 10 -8 11 6 5 10 -3 15 -9 12 -12z m200 -22 c-7 -11 -35 -14 -35 -4 0 3 5
15 11 26 10 19 12 20 21 5 5 -10 6 -22 3 -27z m-165 10 c0 -5 7 -7 15 -4 8 4
15 1 15 -5 0 -12 -11 -14 -34 -5 -18 7 -22 24 -6 24 6 0 10 -4 10 -10z m113
-21 c-17 -17 -37 -1 -22 17 8 10 15 12 23 4 7 -7 7 -13 -1 -21z m194 1 c14
-29 1 -50 -32 -50 -32 0 -34 7 -16 45 18 38 30 40 48 5z m-237 5 c0 -8 -4 -15
-9 -15 -13 0 -22 16 -14 24 11 11 23 6 23 -9z m-70 -24 c0 -12 -20 -25 -27
-18 -7 7 6 27 18 27 5 0 9 -4 9 -9z m224 -7 c13 -33 6 -44 -24 -44 -35 0 -36
2 -14 35 19 29 29 31 38 9z m-184 -19 c0 -8 -6 -15 -14 -15 -17 0 -28 14 -19
24 12 12 33 6 33 -9z m50 -5 c0 -13 -7 -20 -20 -20 -25 0 -26 16 -2 29 23 14
22 14 22 -9z m64 3 c9 -23 -8 -36 -34 -28 -20 6 -21 8 -4 26 21 23 30 24 38 2z"/>
</g>
</svg>
