<?xml version="1.0" encoding="utf-8"?>
<!-- Generator: Adobe Illustrator 15.0.2, SVG Export Plug-In . SVG Version: 6.00 Build 0)  -->
<!DOCTYPE svg PUBLIC "-//W3C//DTD SVG 1.1//EN" "http://www.w3.org/Graphics/SVG/1.1/DTD/svg11.dtd">
<svg version="1.1" id="Layer_1" xmlns="http://www.w3.org/2000/svg" xmlns:xlink="http://www.w3.org/1999/xlink" x="0px" y="0px"
	 width="128px" height="128px" viewBox="0 0 128 128" enable-background="new 0 0 128 128" xml:space="preserve">
<g>
	<g>
		<g>
			<path fill="none" stroke="#0099CC" stroke-miterlimit="10" d="M5.79,36.16c0,0,0.34,0.07,0.97,0.23"/>
			<path fill="none" stroke="#0099CC" stroke-miterlimit="10" stroke-dasharray="1.9615,1.9615" d="M8.64,36.91
				c11.44,3.31,53.39,18.44,54.61,62.69"/>
			<path fill="none" stroke="#0099CC" stroke-miterlimit="10" d="M63.28,100.59c0,0.33,0.01,0.67,0.01,1c0,0,0-0.35,0.03-0.99"/>
			<path fill="none" stroke="#0099CC" stroke-miterlimit="10" stroke-dasharray="1.9837,1.9837" d="M63.44,98.62
				c0.9-12.01,6.94-56.4,47.03-57.83"/>
			<path fill="none" stroke="#0099CC" stroke-miterlimit="10" d="M111.48,40.76c0.33-0.01,0.67-0.01,1-0.01"/>
		</g>
	</g>
	<ellipse fill="#0A4568" stroke="#0099CC" stroke-width="2" stroke-miterlimit="10" cx="63.29" cy="90.6" rx="17.66" ry="11.73"/>
	
		<ellipse transform="matrix(0.9596 -0.2815 0.2815 0.9596 -6.9174 31.2183)" fill="#0A4568" stroke="#0099CC" stroke-width="2" stroke-miterlimit="10" cx="105.21" cy="39.69" rx="15.31" ry="13.49"/>
	<g>
		<path fill="#0A4568" d="M23.12,56.97c-6.88,0-12.49-5.6-12.49-12.49S16.24,32,23.12,32s12.49,5.6,12.49,12.49
			S30.01,56.97,23.12,56.97z"/>
		<path fill="#0099CC" d="M23.12,33c6.33,0,11.49,5.15,11.49,11.49s-5.15,11.49-11.49,11.49s-11.49-5.15-11.49-11.49
			S16.79,33,23.12,33 M23.12,31c-7.45,0-13.49,6.04-13.49,13.49s6.04,13.49,13.49,13.49c7.45,0,13.49-6.04,13.49-13.49
			S30.57,31,23.12,31L23.12,31z"/>
	</g>
</g>
</svg>
