<?xml version="1.0" encoding="utf-8"?>
<!-- Generator: Adobe Illustrator 15.0.2, SVG Export Plug-In . SVG Version: 6.00 Build 0)  -->
<!DOCTYPE svg PUBLIC "-//W3C//DTD SVG 1.1//EN" "http://www.w3.org/Graphics/SVG/1.1/DTD/svg11.dtd">
<svg version="1.1" id="Layer_1" xmlns="http://www.w3.org/2000/svg" xmlns:xlink="http://www.w3.org/1999/xlink" x="0px" y="0px"
	 width="128px" height="128px" viewBox="0 0 128 128" enable-background="new 0 0 128 128" xml:space="preserve">
<g>
	<g>
		<g>
			<line fill="none" stroke="#0099CC" stroke-width="6" stroke-miterlimit="10" x1="65" y1="66" x2="65" y2="81"/>
			
				<line fill="none" stroke="#0099CC" stroke-width="4" stroke-linecap="round" stroke-miterlimit="10" x1="51" y1="82" x2="79" y2="82"/>
			
				<rect x="31.5" y="29.5" fill="#0A4568" stroke="#0099CC" stroke-width="3" stroke-linejoin="round" stroke-miterlimit="10" width="66" height="46"/>
		</g>
	</g>
	<g>
		<g>
			
				<rect x="77.5" y="62.5" fill="#0A4568" stroke="#0099CC" stroke-width="3" stroke-linejoin="round" stroke-miterlimit="10" width="41" height="29"/>
			<polygon fill="#0099CC" stroke="#0099CC" stroke-width="4" stroke-linejoin="round" stroke-miterlimit="10" points="124.67,97 
				71.18,97 77.2,90 118.16,90 			"/>
		</g>
	</g>
	<g>
		<g>
			
				<rect x="18" y="56" fill="#0A4568" stroke="#0099CC" stroke-width="2" stroke-linecap="round" stroke-linejoin="round" stroke-miterlimit="10" width="24" height="37"/>
			<rect x="20" y="59" fill="#0099CC" width="20" height="30"/>
			
				<line fill="none" stroke="#0099CC" stroke-linecap="round" stroke-linejoin="round" stroke-miterlimit="10" x1="31" y1="57.5" x2="29" y2="57.5"/>
			<ellipse fill="#0099CC" cx="30" cy="90.6" rx="1" ry="0.85"/>
		</g>
	</g>
	<g>
		<g>
			
				<rect x="3" y="81" fill="#0A4568" stroke="#0099CC" stroke-width="2" stroke-linecap="round" stroke-linejoin="round" stroke-miterlimit="10" width="29" height="17"/>
			<rect x="6" y="83" fill="#0099CC" width="23" height="13"/>
			
				<line fill="none" stroke="#0099CC" stroke-linecap="round" stroke-linejoin="round" stroke-miterlimit="10" x1="30.5" y1="91" x2="30.5" y2="88"/>
			<ellipse fill="#0099CC" cx="5.35" cy="89.15" rx="0.64" ry="0.66"/>
		</g>
	</g>
</g>
</svg>
