<svg version="1.1" id="Layer_1" xmlns="http://www.w3.org/2000/svg" xmlns:xlink="http://www.w3.org/1999/xlink" x="0" y="0" width="128" height="108" viewBox="0 0 128 108" enable-background="new 0 0 128 108" xml:space="preserve"><line fill="none" stroke="#0099CC" stroke-width="6" stroke-miterlimit="10" x1="65" y1="56" x2="65" y2="71"/><line fill="none" stroke="#0099CC" stroke-width="4" stroke-linecap="round" stroke-miterlimit="10" x1="51" y1="72" x2="79" y2="72"/><rect x="31.5" y="19.5" fill="#0A4568" stroke="#0099CC" stroke-width="3" stroke-linejoin="round" stroke-miterlimit="10" width="66" height="46"/><rect x="77.5" y="52.5" fill="#0A4568" stroke="#0099CC" stroke-width="3" stroke-linejoin="round" stroke-miterlimit="10" width="41" height="29"/><polygon fill="#0099CC" stroke="#0099CC" stroke-width="4" stroke-linejoin="round" stroke-miterlimit="10" points="124.67 87 71.18 87 77.2 80 118.16 80 "/><rect x="18" y="46" fill="#0A4568" stroke="#0099CC" stroke-width="2" stroke-linecap="round" stroke-linejoin="round" stroke-miterlimit="10" width="24" height="37"/><rect x="20" y="49" fill="#0099CC" width="20" height="30"/><line fill="none" stroke="#0099CC" stroke-linecap="round" stroke-linejoin="round" stroke-miterlimit="10" x1="31" y1="47.5" x2="29" y2="47.5"/><ellipse fill="#0099CC" cx="30" cy="80.6" rx="1" ry="0.85"/><rect x="3" y="71" fill="#0A4568" stroke="#0099CC" stroke-width="2" stroke-linecap="round" stroke-linejoin="round" stroke-miterlimit="10" width="29" height="17"/><rect x="6" y="73" fill="#0099CC" width="23" height="13"/><line fill="none" stroke="#0099CC" stroke-linecap="round" stroke-linejoin="round" stroke-miterlimit="10" x1="30.5" y1="81" x2="30.5" y2="78"/><ellipse fill="#0099CC" cx="5.35" cy="79.15" rx="0.64" ry="0.66"/></svg>