<svg version="1.1" id="Layer_1" xmlns="http://www.w3.org/2000/svg" xmlns:xlink="http://www.w3.org/1999/xlink" x="0" y="0" width="128" height="108" viewBox="0 0 128 108" enable-background="new 0 0 128 108" xml:space="preserve"><path fill="#0A4568" d="M63.5 95.31c-23.05 0-41.81-18.76-41.81-41.81S40.45 11.69 63.5 11.69s41.81 18.76 41.81 41.81S86.55 95.31 63.5 95.31z"/><path fill="#0099CC" d="M63.5 13.69c21.95 0 39.81 17.86 39.81 39.81S85.45 93.31 63.5 93.31 23.69 75.45 23.69 53.5 41.55 13.69 63.5 13.69M63.5 9.69c-24.2 0-43.81 19.61-43.81 43.81S39.3 97.31 63.5 97.31s43.81-19.61 43.81-43.81S87.7 9.69 63.5 9.69L63.5 9.69z"/><path fill="#0099CC" d="M38.18 58.93V44.66h1.39v13.02h8.26v1.25H38.18z"/><path fill="#0099CC" d="M54.92 59.03c-0.99 0-1.9-0.2-2.72-0.61 -0.82-0.41-1.53-0.95-2.12-1.63 -0.59-0.68-1.04-1.45-1.37-2.32 -0.32-0.87-0.48-1.76-0.48-2.67 0-0.95 0.17-1.86 0.51-2.73 0.34-0.87 0.81-1.64 1.42-2.31s1.31-1.2 2.13-1.6c0.82-0.4 1.7-0.59 2.65-0.59 0.99 0 1.9 0.21 2.72 0.63 0.82 0.42 1.53 0.97 2.11 1.66 0.58 0.68 1.03 1.46 1.36 2.32 0.32 0.86 0.48 1.75 0.48 2.64 0 0.95-0.17 1.86-0.51 2.73 -0.34 0.87-0.81 1.64-1.41 2.3s-1.3 1.19-2.12 1.59C56.75 58.83 55.87 59.03 54.92 59.03zM49.63 51.79c0 0.78 0.13 1.52 0.38 2.24 0.25 0.72 0.62 1.35 1.08 1.91 0.47 0.56 1.02 1 1.67 1.33 0.64 0.33 1.36 0.49 2.15 0.49 0.8 0 1.53-0.17 2.19-0.52 0.66-0.35 1.21-0.8 1.67-1.37s0.81-1.2 1.06-1.91c0.25-0.71 0.37-1.43 0.37-2.17 0-0.78-0.13-1.52-0.39-2.24 -0.26-0.72-0.63-1.35-1.1-1.9 -0.47-0.55-1.02-0.99-1.67-1.32 -0.64-0.33-1.35-0.49-2.13-0.49 -0.8 0-1.53 0.17-2.19 0.51 -0.66 0.34-1.21 0.79-1.67 1.36 -0.46 0.56-0.81 1.2-1.06 1.91C49.76 50.33 49.63 51.06 49.63 51.79z"/><path fill="#0099CC" d="M74.65 56.86c-1.33 1.45-2.85 2.17-4.56 2.17 -0.96 0-1.85-0.21-2.66-0.62s-1.51-0.96-2.11-1.65c-0.6-0.68-1.06-1.46-1.4-2.32 -0.33-0.86-0.5-1.75-0.5-2.66 0-0.95 0.16-1.86 0.49-2.73 0.33-0.87 0.78-1.64 1.37-2.3 0.58-0.66 1.28-1.19 2.09-1.59 0.81-0.4 1.69-0.59 2.64-0.59 0.7 0 1.33 0.08 1.9 0.23 0.57 0.15 1.08 0.37 1.53 0.64 0.45 0.27 0.84 0.6 1.18 0.98s0.62 0.8 0.84 1.26l-1.09 0.72c-0.47-0.88-1.08-1.53-1.83-1.95 -0.75-0.42-1.6-0.62-2.55-0.62 -0.79 0-1.5 0.17-2.14 0.5 -0.64 0.33-1.18 0.78-1.63 1.34 -0.45 0.56-0.79 1.19-1.04 1.91 -0.24 0.72-0.36 1.46-0.36 2.22 0 0.8 0.14 1.57 0.41 2.29 0.27 0.72 0.65 1.36 1.14 1.9 0.48 0.54 1.05 0.97 1.7 1.3 0.65 0.32 1.36 0.48 2.12 0.48 0.82 0 1.59-0.19 2.33-0.57 0.74-0.38 1.45-0.98 2.13-1.8V53H71.5v-1.09h4.36v7.01h-1.21V56.86z"/><path fill="#0099CC" d="M84.62 59.03c-0.99 0-1.9-0.2-2.72-0.61 -0.82-0.41-1.53-0.95-2.12-1.63 -0.59-0.68-1.04-1.45-1.37-2.32 -0.32-0.87-0.48-1.76-0.48-2.67 0-0.95 0.17-1.86 0.51-2.73 0.34-0.87 0.81-1.64 1.42-2.31 0.6-0.67 1.31-1.2 2.13-1.6 0.82-0.4 1.7-0.59 2.65-0.59 0.99 0 1.9 0.21 2.72 0.63 0.82 0.42 1.53 0.97 2.11 1.66 0.58 0.68 1.04 1.46 1.36 2.32 0.32 0.86 0.48 1.75 0.48 2.64 0 0.95-0.17 1.86-0.51 2.73 -0.34 0.87-0.81 1.64-1.41 2.3 -0.6 0.66-1.3 1.19-2.12 1.59S85.57 59.03 84.62 59.03zM79.33 51.79c0 0.78 0.13 1.52 0.38 2.24 0.25 0.72 0.62 1.35 1.08 1.91 0.47 0.56 1.02 1 1.67 1.33 0.64 0.33 1.36 0.49 2.15 0.49 0.8 0 1.53-0.17 2.19-0.52 0.66-0.35 1.21-0.8 1.67-1.37 0.46-0.56 0.81-1.2 1.05-1.91 0.25-0.71 0.37-1.43 0.37-2.17 0-0.78-0.13-1.52-0.39-2.24 -0.26-0.72-0.63-1.35-1.1-1.9s-1.03-0.99-1.67-1.32c-0.64-0.33-1.35-0.49-2.13-0.49 -0.8 0-1.53 0.17-2.19 0.51 -0.66 0.34-1.21 0.79-1.67 1.36 -0.46 0.56-0.81 1.2-1.06 1.91C79.46 50.33 79.33 51.06 79.33 51.79z"/><line fill="none" stroke="#0099CC" stroke-linecap="round" stroke-miterlimit="10" x1="38" y1="63.5" x2="91" y2="63.5"/></svg>
