<svg version="1.1" id="Layer_1" xmlns="http://www.w3.org/2000/svg" xmlns:xlink="http://www.w3.org/1999/xlink" x="0" y="0" width="128" height="108" viewBox="0 0 128 108" enable-background="new 0 0 128 108" xml:space="preserve"><line fill="none" stroke="#0099CC" stroke-width="6" stroke-miterlimit="10" x1="64" y1="70" x2="64" y2="94"/><line fill="none" stroke="#0099CC" stroke-width="4" stroke-linecap="round" stroke-miterlimit="10" x1="43" y1="95" x2="86" y2="95"/><rect x="11" y="12" fill="#0A4568" stroke="#0099CC" stroke-width="4" stroke-linejoin="round" stroke-miterlimit="10" width="104" height="72"/><rect x="23" y="36" fill="#0A4568" stroke="#0099CC" stroke-width="2" stroke-miterlimit="10" width="79" height="24"/><path fill="#0099CC" d="M35.21 52.17v-9.08h5.95v0.79h-5.06v3.34h4.28v0.74h-4.28v4.21H35.21z"/><path fill="#0099CC" d="M44.97 52.3c-0.49 0-0.93-0.09-1.34-0.27 -0.4-0.18-0.75-0.43-1.05-0.75 -0.29-0.31-0.52-0.68-0.68-1.1 -0.16-0.42-0.24-0.86-0.24-1.32 0-0.47 0.08-0.91 0.25-1.33 0.17-0.42 0.4-0.78 0.69-1.1 0.29-0.32 0.64-0.57 1.05-0.75 0.4-0.19 0.85-0.28 1.32-0.28 0.48 0 0.92 0.09 1.32 0.28 0.4 0.19 0.75 0.44 1.05 0.75 0.29 0.32 0.52 0.68 0.69 1.1 0.17 0.42 0.25 0.86 0.25 1.33 0 0.46-0.08 0.9-0.25 1.32 -0.17 0.42-0.4 0.78-0.69 1.1 -0.29 0.32-0.64 0.56-1.05 0.75C45.88 52.21 45.44 52.3 44.97 52.3zM42.55 48.87c0 0.38 0.06 0.72 0.19 1.04s0.29 0.6 0.51 0.84c0.22 0.24 0.47 0.43 0.77 0.57 0.29 0.14 0.61 0.2 0.94 0.2s0.65-0.07 0.94-0.21c0.29-0.14 0.55-0.33 0.77-0.58 0.22-0.24 0.4-0.53 0.52-0.85 0.13-0.32 0.19-0.67 0.19-1.05 0-0.37-0.06-0.71-0.19-1.04s-0.3-0.61-0.52-0.86 -0.48-0.43-0.77-0.58c-0.29-0.14-0.6-0.21-0.93-0.21s-0.65 0.07-0.94 0.21c-0.29 0.14-0.55 0.33-0.77 0.58 -0.22 0.25-0.39 0.54-0.52 0.86C42.61 48.14 42.55 48.49 42.55 48.87z"/><path fill="#0099CC" d="M49.74 42.83h0.87v7.83c0 0.25 0.07 0.44 0.2 0.58 0.14 0.14 0.33 0.21 0.58 0.21 0.09 0 0.2-0.01 0.33-0.04 0.13-0.03 0.25-0.06 0.36-0.1l0.15 0.7c-0.16 0.07-0.36 0.12-0.59 0.17s-0.44 0.06-0.61 0.06c-0.4 0-0.72-0.11-0.95-0.34 -0.23-0.23-0.35-0.54-0.35-0.95V42.83z"/><path fill="#0099CC" d="M53.11 42.83h0.87v7.83c0 0.25 0.07 0.44 0.2 0.58 0.14 0.14 0.33 0.21 0.58 0.21 0.09 0 0.2-0.01 0.33-0.04 0.13-0.03 0.25-0.06 0.36-0.1l0.15 0.7c-0.16 0.07-0.36 0.12-0.59 0.17s-0.44 0.06-0.61 0.06c-0.4 0-0.72-0.11-0.95-0.34 -0.23-0.23-0.35-0.54-0.35-0.95V42.83z"/><path fill="#0099CC" d="M59.32 52.3c-0.49 0-0.93-0.09-1.34-0.27 -0.4-0.18-0.75-0.43-1.05-0.75 -0.29-0.31-0.52-0.68-0.68-1.1C56.08 49.76 56 49.32 56 48.86c0-0.47 0.08-0.91 0.25-1.33 0.17-0.42 0.4-0.78 0.69-1.1 0.29-0.32 0.64-0.57 1.05-0.75 0.4-0.19 0.85-0.28 1.32-0.28 0.48 0 0.92 0.09 1.32 0.28 0.4 0.19 0.75 0.44 1.05 0.75 0.29 0.32 0.52 0.68 0.69 1.1 0.17 0.42 0.25 0.86 0.25 1.33 0 0.46-0.08 0.9-0.25 1.32 -0.17 0.42-0.4 0.78-0.69 1.1 -0.29 0.32-0.64 0.56-1.05 0.75C60.23 52.21 59.79 52.3 59.32 52.3zM56.9 48.87c0 0.38 0.06 0.72 0.19 1.04s0.29 0.6 0.51 0.84c0.22 0.24 0.47 0.43 0.77 0.57 0.29 0.14 0.61 0.2 0.94 0.2s0.65-0.07 0.94-0.21c0.29-0.14 0.55-0.33 0.77-0.58 0.22-0.24 0.4-0.53 0.52-0.85 0.13-0.32 0.19-0.67 0.19-1.05 0-0.37-0.06-0.71-0.19-1.04s-0.3-0.61-0.52-0.86 -0.48-0.43-0.77-0.58c-0.29-0.14-0.6-0.21-0.93-0.21s-0.65 0.07-0.94 0.21c-0.29 0.14-0.55 0.33-0.77 0.58 -0.22 0.25-0.39 0.54-0.52 0.86C56.96 48.14 56.9 48.49 56.9 48.87z"/><path fill="#0099CC" d="M72.23 45.51h0.84l-2.85 6.66H69.5l-1.42-3.4 -1.42 3.4h-0.73l-2.85-6.66h0.83l2.43 5.77 1.27-3.04 -1.14-2.71h0.74l0.87 2.17 0.86-2.17h0.74l-1.13 2.71 1.27 3.04L72.23 45.51z"/><path fill="#0099CC" d="M81.02 51.43c0.57 0 1.05-0.11 1.43-0.33 0.38-0.22 0.68-0.5 0.91-0.86 0.23-0.35 0.38-0.76 0.47-1.21 0.09-0.45 0.13-0.91 0.13-1.37v-4.58h0.89v4.58c0 0.61-0.07 1.2-0.2 1.75 -0.14 0.55-0.36 1.03-0.66 1.45 -0.3 0.42-0.7 0.75-1.18 1 -0.49 0.25-1.08 0.37-1.78 0.37 -0.72 0-1.33-0.13-1.82-0.39 -0.49-0.26-0.88-0.6-1.18-1.03 -0.3-0.43-0.51-0.91-0.64-1.46 -0.13-0.55-0.19-1.11-0.19-1.69v-4.58h0.88v4.58c0 0.48 0.05 0.94 0.14 1.39 0.09 0.45 0.25 0.85 0.48 1.2 0.23 0.35 0.53 0.63 0.9 0.84C79.99 51.32 80.46 51.43 81.02 51.43z"/><path fill="#0099CC" d="M88.85 52.3c-0.52 0-1.03-0.09-1.52-0.26 -0.49-0.17-0.92-0.42-1.28-0.74l0.4-0.59c0.38 0.31 0.76 0.54 1.14 0.69 0.39 0.15 0.8 0.23 1.25 0.23 0.54 0 0.97-0.11 1.29-0.33s0.48-0.53 0.48-0.93c0-0.19-0.04-0.34-0.13-0.47s-0.21-0.23-0.38-0.33 -0.38-0.18-0.63-0.25c-0.25-0.07-0.54-0.15-0.88-0.22 -0.38-0.09-0.72-0.19-1-0.28 -0.28-0.09-0.51-0.2-0.7-0.32 -0.18-0.12-0.32-0.27-0.41-0.44 -0.09-0.17-0.13-0.39-0.13-0.66 0-0.33 0.07-0.63 0.2-0.88s0.31-0.47 0.54-0.63c0.23-0.17 0.49-0.29 0.79-0.38 0.3-0.09 0.63-0.13 0.97-0.13 0.51 0 0.98 0.08 1.39 0.25 0.42 0.17 0.75 0.39 1.01 0.66l-0.42 0.51c-0.25-0.26-0.55-0.45-0.9-0.58 -0.35-0.13-0.72-0.19-1.11-0.19 -0.23 0-0.44 0.02-0.64 0.07s-0.37 0.12-0.52 0.22c-0.15 0.1-0.27 0.23-0.35 0.39 -0.08 0.16-0.13 0.34-0.13 0.56 0 0.18 0.03 0.32 0.09 0.44s0.16 0.21 0.29 0.29c0.14 0.08 0.31 0.15 0.52 0.22s0.46 0.13 0.76 0.2c0.43 0.1 0.8 0.21 1.13 0.31 0.32 0.1 0.59 0.22 0.81 0.36 0.22 0.14 0.38 0.3 0.49 0.5 0.11 0.2 0.17 0.44 0.17 0.72 0 0.61-0.24 1.1-0.7 1.46C90.27 52.12 89.64 52.3 88.85 52.3z"/><line fill="none" stroke="#0099CC" stroke-width="2" stroke-miterlimit="10" x1="93.97" y1="62.46" x2="101.14" y2="69.63"/><polygon fill="#0099CC" points="92.7 71.67 95.72 64.21 103.18 61.2 85.53 54.02 "/></svg>